<svg xmlns="http://www.w3.org/2000/svg" width="16.565" height="13.077" viewBox="0 0 16.565 13.077"><defs><style>.a{fill:rgba(0,0,0,0.45);}</style></defs><path class="a" d="M125.177,171.449H112.1a1.744,1.744,0,0,0-1.744,1.744v9.59a1.744,1.744,0,0,0,1.744,1.744h13.077a1.744,1.744,0,0,0,1.744-1.744v-9.59A1.744,1.744,0,0,0,125.177,171.449Zm-12.435.872h11.793a1.512,1.512,0,0,1,1.514,1.511v6.335H111.228v-6.335A1.513,1.513,0,0,1,112.742,172.321Zm11.793,11.334H112.742a1.513,1.513,0,0,1-1.514-1.511v-1.1h14.821v1.1A1.512,1.512,0,0,1,124.535,183.655Zm-7.8-9.1v1.577h1.195l-.16.326h-1.035v2.014h-.827v-2.014h-1.6v.32l-.75,1.695h-.9l.854-1.792v-.222h-1.243v-.326h1.243v-1.577h-1.243v-.326h1.243v-.007h3.223v.007h1.195l-.16.326Zm-.827,0h-1.6v1.577h1.6Zm9.19,1.431-.208.306H119v-.306h2.306V174.2h.792v.736h2.167l-.208.306H122.1v.736h3Zm-3.792.445h.792v2.049h-.792Zm2.209.424.368,1.118h-.834l-.375-1.118Z" transform="translate(-110.356 -171.449)"/></svg>