<svg xmlns="http://www.w3.org/2000/svg" width="16" height="16" viewBox="0 0 16 16"><defs><style>.a{fill:rgba(0,0,0,0.45);}</style></defs><g transform="translate(-0.288 0)"><path class="a" d="M8.281,16a8,8,0,1,1,5.75-2.431A8,8,0,0,1,8.281,16Zm0-15.276A7.277,7.277,0,1,0,15.559,8,7.277,7.277,0,0,0,8.281.724Z" transform="translate(0 0)"/><path class="a" d="M175.758,142.378c-2.953-3.019-10.691-10.935-11.02-11.223a.372.372,0,0,0,.234.083v-.75c.166,0,.166,0,.757.593.307.308.743.748,1.263,1.277,1.039,1.05,2.419,2.461,3.8,3.869,2.756,2.819,5.51,5.632,5.51,5.632Z" transform="translate(-162.088 -128.613)"/></g></svg>