<svg xmlns="http://www.w3.org/2000/svg" xmlns:xlink="http://www.w3.org/1999/xlink" width="392" height="235" viewBox="0 0 392 235"><defs><style>.a{fill:#f96657;}.b{fill:#8db9ff;}.c{clip-path:url(#a);}.d{opacity:0.104;fill:url(#b);}.e{opacity:0.189;fill:url(#c);}.f{opacity:0.146;fill:url(#f);}.g{fill:url(#g);}.h{filter:url(#d);}</style><clipPath id="a"><rect class="a" width="392" height="235" rx="8"/></clipPath><linearGradient id="b" x1="0.5" x2="0.5" y2="1" gradientUnits="objectBoundingBox"><stop offset="0" stop-color="#fff"/><stop offset="1" stop-color="#fff"/></linearGradient><linearGradient id="c" x1="0.021" y1="0.345" x2="0.96" y2="0.354" gradientUnits="objectBoundingBox"><stop offset="0" stop-color="#fff" stop-opacity="0.529"/><stop offset="1" stop-color="#9fdaff" stop-opacity="0.529"/></linearGradient><filter id="d" x="-67.277" y="13.049" width="580.533" height="417.023" filterUnits="userSpaceOnUse"><feOffset dy="-3" input="SourceAlpha"/><feGaussianBlur stdDeviation="11" result="e"/><feFlood flood-opacity="0.161"/><feComposite operator="in" in2="e"/><feComposite in="SourceGraphic"/></filter><linearGradient id="f" x1="1" y1="0.5" x2="0" y2="0.5" gradientUnits="objectBoundingBox"><stop offset="0" stop-color="#a3c7ff"/><stop offset="1" stop-color="#fff"/></linearGradient><linearGradient id="g" x1="1" y1="0.5" x2="0" y2="0.5" gradientUnits="objectBoundingBox"><stop offset="0" stop-color="#577cf9" stop-opacity="0.106"/><stop offset="1" stop-color="#d9fbff" stop-opacity="0.137"/></linearGradient></defs><g transform="translate(-931 -497)"><rect class="b" width="392" height="235" rx="8" transform="translate(931 497)"/><g class="c" transform="translate(931 497)"><path class="d" d="M0,0,390.414,13.331l13.331,371.043L13.331,371.043Z" transform="matrix(0.891, -0.454, 0.454, 0.891, -292.747, 117.5)"/><g class="h" transform="matrix(1, 0, 0, 1, 0, 0)"><path class="e" d="M1.64,17.874C1.8,9.838,8.654,3.272,17.046,3.119L452-4.825c8.594-.157,15.505,6.46,15.343,14.689l-4.232,214.368c-.159,8.036-7.015,14.6-15.406,14.755L12.75,246.932c-8.594.157-15.505-6.46-15.343-14.689Z" transform="translate(23.8 54.34) rotate(13)"/></g><path class="f" d="M.65,43.681C1.51,19.675,20.653-.054,43.9-.889h0c22.814-.82,41,18.01,40.158,41.573L80.31,145.113c-.861,24.006-20,43.735-43.247,44.57h0c-22.814.82-41-18.01-40.158-41.573Z" transform="matrix(0.883, 0.469, -0.469, 0.883, 294.919, -122.126)"/><path class="g" d="M.635,44.682C1.509,20.126,20.736-.047,44.072-.892h0c22.9-.83,41.159,18.439,40.3,42.541l-3.8,106.819c-.874,24.556-20.1,44.729-43.437,45.574h0c-22.9.83-41.159-18.439-40.3-42.541Z" transform="matrix(0.883, 0.469, -0.469, 0.883, 344.511, 148.237)"/></g></g></svg>