<svg xmlns="http://www.w3.org/2000/svg" width="16.249" height="16" viewBox="0 0 16.249 16"><defs><style>.a{fill:rgba(0,0,0,0.45);}</style></defs><path class="a" d="M69.888,128.137l1.722,1.722-9.749,9.749H60.139v-1.722l9.749-9.749m0-1.278a.607.607,0,0,0-.433.173L59.229,137.269a.607.607,0,0,0-.173.433V140.1a.607.607,0,0,0,.607.607h2.394a.607.607,0,0,0,.433-.173L72.7,130.293a.607.607,0,0,0,0-.856l-2.383-2.394a.607.607,0,0,0-.433-.173ZM72.6,141.776H57.431a.542.542,0,0,0,0,1.083H72.6a.542.542,0,0,0,0-1.083Z" transform="translate(-56.889 -126.859)"/></svg>