<svg xmlns="http://www.w3.org/2000/svg" width="14" height="13.998" viewBox="0 0 14 13.998"><defs><style>.a{fill:rgba(0,0,0,0.45);}</style></defs><g transform="translate(-58.51 -295.779)"><path class="a" d="M-7313.275,226.228a7.031,7.031,0,0,1-2.226-1.5,6.949,6.949,0,0,1-1.5-2.224,6.945,6.945,0,0,1-.551-2.725,6.943,6.943,0,0,1,.551-2.723,6.992,6.992,0,0,1,1.5-2.224,6.92,6.92,0,0,1,2.226-1.5,6.949,6.949,0,0,1,2.724-.551,6.925,6.925,0,0,1,2.725.553,7,7,0,0,1,2.226,1.5,6.924,6.924,0,0,1,1.5,2.224,6.945,6.945,0,0,1,.551,2.723,6.967,6.967,0,0,1-.551,2.725,6.955,6.955,0,0,1-1.5,2.222,6.981,6.981,0,0,1-2.226,1.5,6.938,6.938,0,0,1-2.723.549A6.947,6.947,0,0,1-7313.275,226.228Zm-3.2-6.448a5.929,5.929,0,0,0,5.923,5.923,5.926,5.926,0,0,0,5.92-5.923,5.927,5.927,0,0,0-5.92-5.921A5.927,5.927,0,0,0-7316.475,219.781Zm5.377,3.23v-2.69h-2.69a.54.54,0,0,1-.542-.54.541.541,0,0,1,.542-.54h2.69v-2.69a.539.539,0,0,1,.538-.54.539.539,0,0,1,.54.54v2.69h2.692a.541.541,0,0,1,.54.54.54.54,0,0,1-.54.54h-2.692v2.69a.538.538,0,0,1-.54.54A.538.538,0,0,1-7311.1,223.011Z" transform="translate(7376.061 82.999)"/></g></svg>