<svg xmlns="http://www.w3.org/2000/svg" width="16" height="16" viewBox="0 0 16 16"><defs><style>.a{fill:rgba(0,0,0,0.45);}</style></defs><path class="a" d="M159.019,168.681l-2.959,0a1.144,1.144,0,0,1-1.144-1.143l0-2.959a.558.558,0,0,0-1.117,0l0,2.959a2.261,2.261,0,0,0,2.26,2.262l2.959,0a.559.559,0,0,0,0-1.119Zm10.22-4.659a.559.559,0,0,0-.558.558l0,2.959a1.144,1.144,0,0,1-1.143,1.143l-2.959,0a.558.558,0,0,0,0,1.117l2.959,0a2.261,2.261,0,0,0,2.26-2.26l0-2.959A.559.559,0,0,0,169.239,164.022Zm-14.879-4.444a.559.559,0,0,0,.558-.558l0-2.959a1.144,1.144,0,0,1,1.143-1.144l2.959,0a.558.558,0,0,0,0-1.117l-2.959,0a2.261,2.261,0,0,0-2.26,2.26l0,2.959A.559.559,0,0,0,154.361,159.578Zm14.778-5.112a2.247,2.247,0,0,0-1.6-.663l-2.959,0a.558.558,0,1,0,0,1.117l2.959,0a1.144,1.144,0,0,1,1.143,1.143l0,2.959a.558.558,0,1,0,1.117,0l0-2.959A2.252,2.252,0,0,0,169.139,154.466Zm-3.71,11.6a.558.558,0,0,0,1.117,0,4.761,4.761,0,0,0-2.964-4.4,2.733,2.733,0,1,0-3.835-.031c.033.033.069.067.1.1a4.758,4.758,0,0,0-1.409.974,4.709,4.709,0,0,0-1.391,3.357.558.558,0,1,0,1.117,0,3.63,3.63,0,0,1,3.629-3.629h0a3.63,3.63,0,0,1,3.629,3.634Zm-3.75-7.98a1.617,1.617,0,1,1-1.615,1.617A1.6,1.6,0,0,1,161.679,158.09Z" transform="translate(-153.8 -153.8)"/></svg>