<svg xmlns="http://www.w3.org/2000/svg" width="16.112" height="16" viewBox="0 0 16.112 16"><defs><style>.a{fill:rgba(0,0,0,0.45);}</style></defs><g transform="translate(-81.92 -82.788)"><path class="a" d="M92.211,90.319a4.1,4.1,0,1,0-4.47,0,8.087,8.087,0,0,0-5.821,7.759.492.492,0,1,0,.984,0,7.072,7.072,0,1,1,14.144,0,.492.492,0,1,0,.984,0A8.087,8.087,0,0,0,92.211,90.319Zm-5.348-3.44A3.113,3.113,0,1,1,89.976,90a3.113,3.113,0,0,1-3.113-3.121Z"/><path class="a" d="M437.328,549.589h-1.009a.731.731,0,0,1-.725-.7l-.087-.823a.731.731,0,0,1,.726-.736h1.182a.731.731,0,0,1,.725.735l0,.054-.085.769A.731.731,0,0,1,437.328,549.589Zm-.8-.974h.586l.034-.313H436.5Zm.244,5.961h-.014a.525.525,0,0,1-.408-.211l-.875-1.162a.536.536,0,0,1-.106-.359l.169-2.419a.532.532,0,0,1,.528-.5h1.509a.533.533,0,0,1,.528.5l.169,2.417a.533.533,0,0,1-.123.381l-.972,1.163a.525.525,0,0,1-.405.19Zm-.434-1.83.451.6.512-.612-.128-1.828h-.706ZM437.419,552.594Zm-.92-2.1h0Z" transform="translate(-346.85 -455.788)"/></g></svg>