<svg xmlns="http://www.w3.org/2000/svg" width="15.342" height="16" viewBox="0 0 15.342 16"><defs><style>.a{fill:rgba(51,51,51,0.45);}</style></defs><path class="a" d="M111.325,77a1.471,1.471,0,0,1,1.471,1.47v10.2a1.471,1.471,0,0,1-1.471,1.47H100.1a.888.888,0,1,0-.017,1.764H112.8A.546.546,0,0,1,112.809,93H100.1A2.036,2.036,0,0,1,98,91.026a1.9,1.9,0,0,1,.484-1.262A1.465,1.465,0,0,1,98,88.675V78.47A1.471,1.471,0,0,1,99.471,77Zm0,1.092h-5.38v5.459a.546.546,0,0,1-.9.418l-.011-.009-1.424-1.26-1.424,1.26a.547.547,0,0,1-.908-.395V78.092H99.471a.378.378,0,0,0-.378.367V88.675a.378.378,0,0,0,.367.378h11.865a.378.378,0,0,0,.378-.367V78.47a.378.378,0,0,0-.367-.378h-.011Zm-6.473.252h-2.48v3.995l.878-.776a.547.547,0,0,1,.713-.009l.011.009.878.776V78.344Z" transform="translate(-98 -77)"/></svg>