<svg xmlns="http://www.w3.org/2000/svg" width="15.304" height="16" viewBox="0 0 15.304 16"><defs><style>.a{fill:rgba(0,0,0,0.45);}</style></defs><path class="a" d="M37.565,15.579a.451.451,0,0,1-.9,0,6.552,6.552,0,0,0-6.752-6.316,6.552,6.552,0,0,0-6.752,6.316.451.451,0,0,1-.9,0,7.245,7.245,0,0,1,5.408-6.842,4.6,4.6,0,0,1-2.707-4.105,4.963,4.963,0,0,1,9.9,0,4.6,4.6,0,0,1-2.707,4.105A7.245,7.245,0,0,1,37.565,15.579Zm-3.6-10.947a4.061,4.061,0,0,0-8.1,0,4.061,4.061,0,0,0,8.1,0Z" transform="translate(-22.261)"/></svg>