<svg xmlns="http://www.w3.org/2000/svg" width="16" height="16.002" viewBox="0 0 16 16.002"><defs><style>.a{fill:rgba(0,0,0,0.45);}</style></defs><g transform="translate(-52.2 -52.2)"><path class="a" d="M67.111,68.2H53.291A1.092,1.092,0,0,1,52.2,67.111V53.291A1.092,1.092,0,0,1,53.291,52.2H67.109A1.092,1.092,0,0,1,68.2,53.291V67.109A1.092,1.092,0,0,1,67.111,68.2ZM53.291,52.927a.365.365,0,0,0-.364.364V67.109a.365.365,0,0,0,.364.364H67.109a.365.365,0,0,0,.364-.364V53.291a.365.365,0,0,0-.364-.364Z" transform="translate(0 0)"/><path class="a" d="M222.71,249.2a.35.35,0,0,1-.273-.131l-2.165-2.723v2.507a.348.348,0,0,1-.7,0v-3.5a.348.348,0,0,1,.622-.214l2.165,2.721v-2.507a.348.348,0,0,1,.7,0v3.5a.345.345,0,0,1-.233.327A.35.35,0,0,1,222.71,249.2Zm3.481-.018a2.081,2.081,0,1,1,2.09-2.081A2.088,2.088,0,0,1,226.191,249.18Zm0-3.468a1.387,1.387,0,1,0,1.393,1.387A1.392,1.392,0,0,0,226.191,245.712Zm2.613,8.659h-9.056a.347.347,0,1,1,0-.694H228.8a.347.347,0,1,1,0,.694Z" transform="translate(-164.075 -189.197)"/><path class="a" d="M763.191,465.391m-.391,0a.391.391,0,1,0,.391-.391A.391.391,0,0,0,762.8,465.391Z" transform="translate(-698.279 -405.642)"/></g></svg>