<svg xmlns="http://www.w3.org/2000/svg" width="15.976" height="14" viewBox="0 0 15.976 14"><defs><style>.a{fill:rgba(0,0,0,0.45);}</style></defs><g transform="translate(0 -63.33)"><path class="a" d="M11.846,76.083a.623.623,0,1,1,0,1.247H4.13a.623.623,0,1,1,0-1.247ZM14.729,63.33a1.247,1.247,0,0,1,1.247,1.247v8.845a1.247,1.247,0,0,1-1.247,1.247H1.247A1.246,1.246,0,0,1,0,73.422V64.577A1.247,1.247,0,0,1,1.247,63.33H14.729Zm0,1.247H1.247v8.845H14.729V64.577Z"/><path class="a" d="M391.776,227.011l.006,0,3.912,2.543a.627.627,0,0,1,.3.536.554.554,0,0,1-.3.49l-.006,0-.006,0-3.891,2.383,0,0a.286.286,0,0,1-.127.056l-.009,0h-.008l-.011,0a.878.878,0,0,1-.122.006h-.07a.511.511,0,0,1-.25-.056l-.015-.007-.006,0a.625.625,0,0,1-.3-.526v-4.9a.628.628,0,0,1,.3-.536A.562.562,0,0,1,391.776,227.011Zm.3,1.631v2.714l2.163-1.315Z" transform="translate(-384.9 -161.127)"/></g></svg>