<svg xmlns="http://www.w3.org/2000/svg" width="14.002" height="13.999" viewBox="0 0 14.002 13.999"><defs><style>.a{fill:rgba(0,0,0,0.45);}</style></defs><path class="a" d="M-6325.214,223.41a7,7,0,0,1-2.226-1.5,6.918,6.918,0,0,1-1.5-2.224,6.955,6.955,0,0,1-.551-2.724,6.949,6.949,0,0,1,.551-2.724,7,7,0,0,1,1.5-2.225,6.927,6.927,0,0,1,2.226-1.5,6.952,6.952,0,0,1,2.724-.551,6.94,6.94,0,0,1,2.726.553,7.008,7.008,0,0,1,2.225,1.5,6.94,6.94,0,0,1,1.5,2.225,6.935,6.935,0,0,1,.551,2.724,6.952,6.952,0,0,1-.551,2.724,6.943,6.943,0,0,1-1.5,2.222,6.951,6.951,0,0,1-2.224,1.5,6.948,6.948,0,0,1-2.724.55A6.95,6.95,0,0,1-6325.214,223.41Zm-3.2-6.448a5.928,5.928,0,0,0,5.922,5.922,5.928,5.928,0,0,0,5.922-5.922,5.93,5.93,0,0,0-5.922-5.923A5.928,5.928,0,0,0-6328.412,216.963Zm2.685.54a.539.539,0,0,1-.54-.54.539.539,0,0,1,.54-.54h6.462a.54.54,0,0,1,.54.54.54.54,0,0,1-.54.54Z" transform="translate(6329.491 -209.961)"/></svg>