<svg xmlns="http://www.w3.org/2000/svg" width="17.718" height="16" viewBox="0 0 17.718 16"><defs><style>.a{fill:rgba(0,0,0,0.45);}</style></defs><g transform="translate(-66.227 -107.556)"><path class="a" d="M328.776,107.556h-4.65a.533.533,0,0,0,0,1.066h3.624l-3.221,3.128a.54.54,0,0,0-.018.753.516.516,0,0,0,.739.018l3.291-3.2v3.226a.523.523,0,1,0,1.046,0v-4.168A.82.82,0,0,0,328.776,107.556Z" transform="translate(-252.328)"/><path class="a" d="M69.97,293.079a3.739,3.739,0,1,0,3.736,3.739A3.739,3.739,0,0,0,69.97,293.079Zm0,6.42a2.681,2.681,0,1,1,2.679-2.681A2.681,2.681,0,0,1,69.97,299.5Zm10.239-5.184a3.737,3.737,0,0,0-3.034,5.917l-1.918,1.943-1.477-1.459a.529.529,0,0,0-.742.753l1.477,1.458-1.584,1.6a.529.529,0,1,0,.752.744l1.585-1.6,1.63,1.61a.529.529,0,1,0,.742-.754l-1.629-1.609,1.9-1.922a3.737,3.737,0,1,0,2.3-6.681Zm0,6.42a2.681,2.681,0,1,1,2.679-2.681A2.681,2.681,0,0,1,80.209,300.735Z" transform="translate(0 -181.877)"/></g></svg>