<svg xmlns="http://www.w3.org/2000/svg" width="16" height="16.471" viewBox="0 0 16 16.471"><defs><style>.a{fill:rgba(0,0,0,0.45);}</style></defs><path class="a" d="M163.922,135.529h-1.431c-.207-3.153-2.438-5.647-5.158-5.647-.033,0-.066,0-.1,0L158.745,128h-1.882v1.911c-2.5.268-4.494,2.649-4.687,5.619h-1.431a1.416,1.416,0,0,0-1.412,1.412v6.118a1.416,1.416,0,0,0,1.412,1.412h13.176a1.416,1.416,0,0,0,1.412-1.412v-6.118a1.416,1.416,0,0,0-1.412-1.412Zm-6.588-4.706c2.207,0,4.019,2.071,4.216,4.706h-8.433C153.315,132.894,155.126,130.824,157.333,130.824Zm-3.294,12.706v-3.765h2.824v3.765Zm3.765,0v-3.765h2.824v3.765Zm6.588-.471a.472.472,0,0,1-.471.471h-2.353v-3.765a.944.944,0,0,0-.941-.941h-6.588a.944.944,0,0,0-.941.941v3.765h-2.353a.472.472,0,0,1-.471-.471v-6.118a.472.472,0,0,1,.471-.471h13.176a.472.472,0,0,1,.471.471Z" transform="translate(-149.333 -128)"/></svg>