<svg xmlns="http://www.w3.org/2000/svg" width="14.876" height="16" viewBox="0 0 14.876 16"><defs><style>.a{fill:rgba(51,51,51,0.45);}</style></defs><path class="a" d="M-6340.617,125.954h-.007a.567.567,0,0,1-.163-.026.577.577,0,0,1-.134-.062l-6.824-3.7a.572.572,0,0,1-.23-.775.572.572,0,0,1,.775-.23l6.584,3.566,6.6-3.566a.573.573,0,0,1,.775.23.573.573,0,0,1-.23.775l-6.854,3.7a.57.57,0,0,1-.054.028.552.552,0,0,1-.236.053h0Zm0-3.714h-.007a.567.567,0,0,1-.166-.027.582.582,0,0,1-.131-.061l-6.824-3.7a.572.572,0,0,1-.23-.775.572.572,0,0,1,.775-.23l6.584,3.566,6.6-3.566a.573.573,0,0,1,.775.23.573.573,0,0,1-.23.775l-6.854,3.7c-.018.01-.035.02-.053.028a.552.552,0,0,1-.237.053h0Zm0-3.857h-.007a.568.568,0,0,1-.163-.026.577.577,0,0,1-.134-.062l-6.793-3.68a.569.569,0,0,1-.267-.254.571.571,0,0,1,.077-.641.563.563,0,0,1,.192-.144l6.831-3.558a.571.571,0,0,1,.567.022l6.8,3.532a.568.568,0,0,1,.237.191.568.568,0,0,1,.043.6.57.57,0,0,1-.262.252l-6.828,3.689a.569.569,0,0,1-.054.028.552.552,0,0,1-.236.053h0Zm0-1.223,5.653-3.054-5.652-2.936-5.638,2.936Z" transform="translate(6348.046 -109.954)"/></svg>